<?xml version="1.0" standalone="no"?><!DOCTYPE svg PUBLIC "-//W3C//DTD SVG 1.1//EN" "http://www.w3.org/Graphics/SVG/1.1/DTD/svg11.dtd"><svg t="1635413397178" class="icon" viewBox="0 0 1024 1024" version="1.1" xmlns="http://www.w3.org/2000/svg" p-id="9508" xmlns:xlink="http://www.w3.org/1999/xlink" width="200" height="200"><defs><style type="text/css"></style></defs><path d="M973.971242 1024v-99.890196l50.028758-50.028758v99.890196L973.971242 1024zM0 50.028758L50.028758 0h99.890196l-50.028758 50.028758H0z" fill="#168CE8" p-id="9509"></path><path d="M50.028758 0h387.179085L1024 586.959477v387.179085L50.028758 0z" fill="#168CE8" p-id="9510"></path><path d="M358.734641 157.950327l-27.942484 27.942483-19.40915-19.40915 83.66013-83.660131 29.448366 29.448366c5.856209 5.856209 10.206536 11.712418 13.050981 17.233987 2.844444 5.688889 4.350327 11.043137 4.684967 16.230066 0.334641 5.186928-0.501961 10.039216-2.677124 14.724183-2.007843 4.684967-5.019608 8.867974-8.867974 12.71634-4.183007 4.183007-8.700654 7.362092-13.552941 9.537254-4.852288 2.175163-9.871895 3.011765-15.058824 2.844445-5.186928-0.334641-10.708497-1.840523-16.230065-4.684967-5.688889-2.844444-11.377778-7.194771-17.066667-12.883661l-10.039215-10.039215z m14.724183-14.724183l10.039215 10.039215c5.019608 5.019608 9.871895 7.529412 14.556863 7.362092s9.035294-2.509804 13.385621-6.69281c1.840523-1.840523 3.346405-4.015686 4.350327-6.02353 1.003922-2.175163 1.505882-4.350327 1.505882-6.69281s-0.669281-4.684967-1.840523-7.027451c-1.171242-2.342484-3.011765-4.852288-5.354248-7.194772l-10.039216-10.039215-26.603921 26.269281zM508.988235 280.428758c-6.023529 6.023529-12.71634 10.708497-20.078431 13.720262-7.362092 3.179085-14.724183 4.684967-22.420915 4.684967s-15.226144-1.505882-22.755556-4.684967-14.556863-8.031373-21.082353-14.556863c-6.52549-6.52549-11.377778-13.552941-14.556862-21.082353s-4.684967-15.058824-4.684968-22.755556 1.673203-15.058824 4.684968-22.420915c3.179085-7.362092 7.696732-13.887582 13.720261-20.078431 6.023529-6.023529 12.71634-10.708497 20.078431-13.720261 7.362092-3.179085 14.724183-4.684967 22.420915-4.684968s15.226144 1.505882 22.755556 4.684968 14.556863 8.031373 21.082353 14.556862 11.377778 13.552941 14.389542 21.082353c3.179085 7.529412 4.684967 15.058824 4.684968 22.755556 0 7.529412-1.673203 15.058824-4.684968 22.420915-2.844444 7.362092-7.529412 14.054902-13.552941 20.078431z m-19.743791-19.911111c4.183007-4.183007 7.362092-8.366013 9.537255-12.71634 2.175163-4.350327 3.513725-8.700654 3.848366-13.05098 0.334641-4.350327-0.334641-8.533333-2.175163-12.71634-1.673203-4.183007-4.350327-8.031373-8.031373-11.712418-3.681046-3.681046-7.696732-6.52549-11.879738-8.198693s-8.366013-2.342484-12.71634-2.175164c-4.350327 0.334641-8.700654 1.505882-13.05098 3.848366-4.350327 2.175163-8.700654 5.354248-12.71634 9.537255-4.183007 4.183007-7.362092 8.366013-9.537255 12.88366-2.175163 4.350327-3.513725 8.700654-3.848366 13.050981s0.501961 8.533333 2.175163 12.71634 4.517647 8.031373 8.198693 11.879738c3.681046 3.681046 7.696732 6.35817 11.712418 8.198693s8.366013 2.342484 12.54902 2.175163c4.350327-0.334641 8.700654-1.505882 13.05098-3.848366 4.350327-2.509804 8.700654-5.688889 12.88366-9.871895zM523.879739 322.928105l-27.942484 27.942483-19.40915-19.40915 83.66013-83.660131 29.448366 29.448366c5.856209 5.856209 10.206536 11.712418 13.050981 17.233987 2.844444 5.688889 4.350327 11.043137 4.684967 16.230065 0.334641 5.186928-0.501961 10.039216-2.677124 14.724183-2.007843 4.684967-5.019608 8.867974-8.867974 12.71634-4.183007 4.183007-8.700654 7.362092-13.552941 9.537255-4.852288 2.175163-9.871895 3.011765-15.058824 2.844445-5.186928-0.334641-10.708497-1.840523-16.230065-4.684968-5.688889-2.844444-11.377778-7.194771-17.066667-12.88366l-10.039215-10.039215z m14.556862-14.556863l10.039216 10.039216c5.019608 5.019608 9.871895 7.529412 14.556863 7.362091 4.684967-0.16732 9.035294-2.509804 13.385621-6.69281 1.840523-1.840523 3.346405-4.015686 4.350326-6.02353 1.003922-2.175163 1.505882-4.350327 1.505883-6.69281s-0.669281-4.684967-1.840523-7.027451c-1.171242-2.342484-3.011765-4.852288-5.354248-7.194772l-10.039216-10.039215-26.603922 26.269281zM599.843137 424.156863c2.677124 2.677124 5.354248 4.517647 8.198693 5.688889 2.844444 1.171242 5.856209 1.673203 8.867974 1.505882s6.023529-1.003922 9.202614-2.677124c3.011765-1.505882 6.023529-3.848366 9.035294-6.692811l49.526798-49.526797 19.40915 19.40915-49.526797 49.526798c-5.186928 5.186928-10.708497 9.035294-16.564706 11.545098-6.023529 2.677124-12.047059 3.848366-18.237909 3.848366s-12.381699-1.338562-18.572549-4.015687-12.047059-6.860131-17.568627-12.381699-9.704575-11.377778-12.381699-17.568627-4.015686-12.381699-4.015687-18.572549 1.338562-12.214379 4.015687-18.237909c2.677124-5.856209 6.52549-11.377778 11.712418-16.564706l49.526797-49.526797 19.409151 19.40915-49.526798 49.526798c-3.011765 3.011765-5.186928 6.023529-6.69281 9.035294s-2.509804 6.19085-2.677124 9.202614 0.334641 6.023529 1.505882 8.867974c0.836601 2.844444 2.677124 5.688889 5.354248 8.198693zM667.942484 491.921569l30.954248 30.954248-15.560784 15.560784-50.363399-50.363398 83.660131-83.660131 19.40915 19.40915-68.099346 68.099347zM770.509804 625.443137l-15.058824-15.058823c-1.673203-1.673203-2.677124-3.513725-3.011764-5.354249-0.334641-1.840523 0-3.681046 0.669281-5.354248l9.704575-19.576471-31.79085-31.790849-19.57647 9.704575c-1.505882 0.669281-3.179085 0.836601-5.186928 0.669281s-3.681046-1.171242-5.354249-2.844445l-15.226144-15.226143 115.952942-51.2 19.911111 19.911111-51.03268 116.120261z m-21.751634-85.667974l22.922876 22.922876 15.226144-30.619608c1.003922-2.007843 2.007843-4.183007 3.346405-6.86013s2.844444-5.354248 4.350327-8.366013c-3.011765 1.673203-5.688889 3.179085-8.366014 4.517647-2.677124 1.338562-5.019608 2.509804-7.02745 3.346405l-30.452288 15.058823zM827.566013 620.75817l-30.954248 30.954248-19.409151-19.40915 83.660131-83.660131 27.273203 27.273203c6.023529 6.023529 10.541176 11.879739 13.552941 17.401307s4.852288 10.708497 5.186928 15.560784c0.501961 4.852288-0.16732 9.537255-2.007843 13.720262-1.840523 4.183007-4.517647 8.198693-8.031373 11.712418-2.677124 2.677124-5.688889 4.852288-8.700653 6.52549-3.179085 1.673203-6.52549 2.844444-9.871896 3.513726-3.513725 0.669281-7.027451 0.669281-10.708496 0.16732s-7.362092-1.505882-11.210458-3.179085c0.669281 2.007843 1.003922 4.015686 1.171242 6.02353s0 4.183007-0.501961 6.52549l-11.377778 46.849673-17.568627-17.568628c-3.179085-3.179085-4.350327-6.860131-3.346405-10.708496l10.373856-38.14902c0.501961-1.673203 0.501961-3.179085 0.16732-4.517647s-1.338562-2.677124-2.844444-4.183006l-4.852288-4.852288z m13.385621-13.385621l7.864052 7.864052c2.677124 2.677124 5.186928 4.517647 7.696732 5.688889 2.509804 1.171242 5.019608 1.840523 7.362092 1.840523s4.684967-0.501961 6.69281-1.505882c2.175163-1.003922 4.183007-2.509804 6.02353-4.350327 3.681046-3.681046 5.354248-7.696732 5.019608-12.214379s-3.011765-9.202614-8.031373-14.222222l-7.864052-7.864053-24.763399 24.763399z" fill="#168CE8" p-id="9511"></path></svg>